<?xml version="1.0" standalone="no"?>
<!DOCTYPE svg PUBLIC "-//W3C//DTD SVG 1.1//EN" "http://www.w3.org/Graphics/SVG/1.1/DTD/svg11.dtd">
<svg xmlns="http://www.w3.org/2000/svg">
<metadata>Generated by Fontastic.me</metadata>
<defs>
<font id="bazaato-icons" horiz-adv-x="512">
<font-face font-family="bazaato-icons" units-per-em="512" ascent="480" descent="-32"/>
<missing-glyph horiz-adv-x="512" />

<glyph glyph-name="edit" unicode="&#86;" d="M0 107l0-107 107 0 314 315-106 106z m504 290c5 5 8 13 8 20 0 8-3 15-8 20l-67 67c-5 5-12 8-20 8-7 0-15-3-20-8l-52-52 107-107 52 52z"/>
<glyph glyph-name="message" unicode="&#87;" d="M479 68l-446 0c-14 0-26 12-26 26l0 324c0 14 12 26 26 26l446 0c14 0 26-12 26-26l0-324c0-14-12-26-26-26z m-443 29l440 0 0 318-440 0z m224 106l-244 212 19 22 224-196 219 196 19-22z"/>
<glyph glyph-name="accept-factor" unicode="&#88;" d="M385 13c-2 0-4 0-6 1-11 5-39 20-65 44-33 32-50 67-50 106l0 81c0 6 4 11 10 13l107 36c3 1 6 1 9 0l106-36c6-2 10-7 10-13l0-81c0-39-17-74-50-106-26-24-54-39-65-44-1-1-4-1-6-1z m-92 221l0-70c0-66 67-107 92-121 25 14 92 55 92 121l0 70-92 31z m70-141c0 0 0 0 0 0-5 0-8 2-11 5l-49 62c-5 6-4 16 2 21 6 5 15 4 20-3l40-49 81 82c6 5 15 5 20-1 6-5 6-14 1-20l-93-93c-3-3-7-4-11-4z m-68 240l-210 0c-8 0-15 6-15 14 0 8 7 15 15 15l210 0c8 0 15-7 15-15 0-8-7-14-15-14z m-105-73l-105 0c-8 0-15 6-15 14 0 8 7 15 15 15l105 0c8 0 15-7 15-15 0-8-7-14-15-14z m0-64l-105 0c-8 0-14 6-14 14 0 8 6 14 14 15l105 0c8-1 14-7 14-15 0-8-6-14-14-14z m0-64l-105 0c-8 0-14 6-14 14 0 8 6 14 14 15l105 0c8-1 14-7 14-15 0-8-6-14-14-14z m80-114l-194 0c-39 0-70 31-70 70l0 341c0 39 31 70 70 70l246 0c39 0 70-31 70-70l0-91c0-8-6-14-14-14-8 0-15 6-15 14l0 91c0 23-18 41-41 41l-246 0c-23 0-41-18-41-41l0-341c0-23 18-41 41-41l194 0c8 0 15-7 15-15 0-8-7-14-15-14z"/>
<glyph glyph-name="verify" unicode="&#89;" d="M256 5c-31 0-51 22-66 37l-1 1c-4 6-10 10-15 14-8 2-16 2-23 2l-1 0-3 0c-22 0-49 0-69 20-20 20-20 47-20 69l1 3c0 8 0 16-2 23-4 6-8 11-14 16l-1 0c-15 14-37 36-37 66 0 30 21 50 36 65l2 2 0 0c6 4 10 10 14 15 2 8 2 16 2 23l0 1 0 3c0 22-1 49 20 69 20 21 49 20 71 20l1 0c8-1 16 0 23 1 6 4 11 9 16 14l0 1 1 1c15 15 35 36 65 36 30 0 50-21 65-36l2-2c4-6 10-10 15-14 8-2 16-2 23-2l1 0 3 0c22 0 49 0 69-20 21-20 20-49 20-71l0-1c-1-8 0-16 1-23 4-6 9-11 14-16l1 0 1-2c15-14 36-34 36-64 0-30-21-50-36-65l-2-2 0 0c-6-4-10-10-14-15-2-8-2-16-2-23l0-1 0-3c0-22 1-49-20-69-20-21-49-20-71-20l-1 0c-8 1-16 0-23-1-6-4-11-9-16-14l0-1-1-1c-15-15-35-36-65-36z m-45 57c13-13 27-28 45-28 18 0 32 14 44 27l0 1c7 8 15 15 25 21l2 1 2 0c11 3 22 4 34 3 19 0 38 0 50 12 12 11 11 29 11 48l0 2c-1 11 0 23 3 34l1 2 1 2c6 9 13 17 21 24l1 1c12 12 27 27 27 44 0 17-14 31-27 44l-1 0c-8 7-15 15-21 25l-1 2 0 2c-3 11-4 22-3 34 0 18 1 38-12 50-11 11-29 11-48 11l-2 0c-11-1-23 0-34 3l-2 1-2 1c-9 5-17 13-24 21l-1 0c-12 13-26 28-44 28-18 0-32-14-44-27l0-1c-7-8-15-15-25-21l-2-1-2 0c-11-3-22-4-34-3-19 0-38 0-50-12-12-11-11-29-11-48l0-2c1-11 0-23-3-34l-1-2-1-2c-6-9-13-17-21-24l-1-1c-12-12-27-27-27-44 0-18 15-32 28-44 8-7 15-15 21-25l1-2 1-2c3-11 4-22 3-34l0-1c-1-19-1-37 11-49 11-12 29-11 48-11l2 0c11 1 23 0 34-3l2-1 2-1c9-5 17-13 24-21z m15 110l0 0c-10 0-20 3-28 10l-72 58c-7 5-8 14-3 20 5 6 15 7 21 2l72-58c3-2 6-3 10-3l0 0c4 0 8 2 11 4l130 131c6 5 15 5 20-1 6-5 6-14 0-20l-130-130c-8-8-19-13-31-13z"/>
<glyph glyph-name="school" unicode="&#90;" d="M-247 13l-1 0c-11 0-22 5-30 14l-178 184c-2 2-4 3-5 5-26 30-39 68-36 107 3 39 21 75 51 101l0 0c28 22 63 33 99 31 35-3 69-19 93-45l7-8 8 8c24 26 57 42 93 45 34 2 67-8 95-28l0 0 4-3c2-2 4-4 6-6 28-26 44-64 45-102 1-39-14-77-41-105l-178-184c-1-1-1-1-2-2-8-7-18-12-30-12z m-181 388c-49-42-54-116-11-166 1-1 2-3 4-4l178-184c3-3 6-5 10-5 4 0 8 2 10 4l1 1 178 184c22 23 34 53 33 84-1 31-14 61-36 82-2 2-3 3-4 4l-1 0c-45 37-112 32-152-11l0 0-29-30-28 30c-40 43-107 48-153 11z m934-417l-440 0c-17 0-31 13-31 30l0 245c0 17 14 30 31 30l105 0c8 0 15-6 15-14 0-8-7-15-15-15l-105 0c-1 0-2-1-2-1l0-245c0-1 1-1 2-1l440 0c1 0 1 0 1 1l0 245c0 0 0 1-1 1l-108 0c-8 0-15 7-15 15 0 8 7 14 15 14l108 0c17 0 30-13 30-30l0-245c0-17-13-30-30-30z m-335 0c-3 0-7 1-10 4-3 3-4 6-4 10l0 374c0 8 6 14 14 14 8 0 15-6 15-14l0-374c0-4-2-7-4-10-3-3-7-4-11-4z m227 0c-4 0-8 1-11 4-2 3-4 6-4 10l0 375c0 8 7 15 15 15 8 0 14-7 14-15l0-375c0-4-1-7-4-10-3-3-7-4-10-4z m-62 0c-8 0-15 6-15 14l0 117c0 20-16 36-36 36-20 0-36-16-36-36l0-117c0-8-7-14-15-14-8 0-14 6-14 14l0 117c0 36 29 65 65 65 36 0 65-29 65-65l0-117c0-8-6-14-14-14z m-50 207c-36 0-64 29-64 65 0 35 28 64 64 64 35 0 64-29 64-64 0-36-29-65-64-65z m0 100c-20 0-35-16-35-35 0-20 15-36 35-36 19 0 35 16 35 36 0 19-16 35-35 35z m-174-145c-4 0-8 1-10 4-3 3-5 6-5 10l0 65c0 8 7 14 15 14 8 0 14-6 14-14l0-65c0-4-1-7-4-10-2-3-6-4-10-4z m0-114c-4 0-8 2-10 5-3 2-5 6-5 10l0 69c0 8 7 14 15 14 8 0 14-6 14-14l0-69c0-4-1-8-4-10-2-3-6-5-10-5z m348 114c-8 0-14 7-14 15l0 65c0 8 6 14 14 14 8 0 15-6 15-14l0-65c0-8-7-15-15-15z m0-113c-8 0-14 6-14 14l0 69c0 8 6 15 14 15 8 0 15-7 15-15l0-69c0-8-7-14-15-14z m-14 311c-2 0-3 0-5 1l-159 50c-5 1-9 5-11 11-1 5 1 10 5 14 4 3 10 4 15 3l159-51c7-2 11-9 10-16-1-7-7-12-14-12z m-319-1c-7 0-13 5-15 12-1 7 4 14 10 16l160 52c7 2 16-2 18-10 2-7-2-16-9-18l-160-52c-1 0-3 0-4 0z m257 111l0 0-98 2c-8 0-14 6-14 14 0 8 6 15 14 15l98-2c8 0 15-6 15-14-1-8-7-15-15-15z m-98-60c-8 0-14 7-14 15l0 61c0 8 6 15 14 15 8 0 15-7 15-15l0-61c0-8-7-15-15-15z"/>
<glyph glyph-name="hospital" unicode="&#48;" d="M379 8l-246 0 0 466c0 16 13 30 30 30l194 0c12 0 22-10 22-22z m-217 29l188 0 0 438-187 0c-1 0-1-1-1-1z m0-29l-117 0c-12 0-22 10-22 23l0 264c0 12 10 23 22 23l117 0z m-110 29l81 0 0 252-81 0z m415-29l-117 0 0 310 117 0c12 0 22-10 22-23l0-265c0-12-10-22-22-22z m-88 29l81 0 0 252-81 0z m-53-29l-140 0 0 178c0 12 10 22 22 22l96 0c12 0 22-10 22-22z m-111 29l82 0 0 142-82 0z m-152 218l58 0 0-31-58 0z m0-81l58 0 0-31-58 0z m0-78l58 0 0-31-58 0z m328 160l58 0 0-31-58 0z m0-85l58 0 0-31-58 0z m0-74l58 0 0-31-58 0z m-149 263l41 0 0-41 42 0 0 124-42 0 0-42-41 0 0 42-42 0 0-124 42 0z"/>
<glyph glyph-name="heart" unicode="&#49;" d="M457 445c-55 44-134 38-182-14l-19-20-19 20c-48 52-127 58-182 14-59-51-65-139-14-198 1-2 3-3 4-5l189-195c12-12 31-12 43-1 0 1 1 1 1 1l189 195c53 56 51 144-5 198-1 1-3 3-5 5z"/>
<glyph glyph-name="share-o" unicode="&#50;" d="M173 300l155 91 14-25-154-91z m-7-114l13 25 154-78-13-26z m225 151c-48 0-86 38-86 86 0 47 38 86 86 86 47 0 86-39 86-86 0-48-39-86-86-86z m0 143c-31 0-57-26-57-57 0-32 26-57 57-57 31 0 57 25 57 57 0 31-26 57-57 57z m0-477c-48 0-86 39-86 86 0 48 38 86 86 86 47 0 86-38 86-86 0-47-39-86-86-86z m0 143c-31 0-57-25-57-57 0-31 26-57 57-57 31 0 57 26 57 57 0 32-26 57-57 57z m-270 16c-47 0-86 39-86 86 0 48 39 86 86 86 48 0 86-38 86-86 0-47-38-86-86-86z m0 143c-31 0-57-25-57-57 0-31 26-57 57-57 31 0 57 26 57 57 0 31-26 57-57 57z"/>
<glyph glyph-name="warning" unicode="&#51;" d="M256 509c-140 0-253-113-253-253 0-140 113-253 253-253 140 0 253 113 253 253 0 140-113 253-253 253z m25-379l-50 0 0 50 50 0z m0 101l-50 0 0 151 50 0z"/>
<glyph glyph-name="search" unicode="&#52;" d="M230 60c-90 0-171 54-205 137-35 83-16 178 48 242 42 42 98 65 157 65 123 0 222-99 222-222 0-123-99-222-222-222z m0 415c-106 0-193-87-193-193 0-106 87-193 193-193 107 0 193 86 193 193 0 107-86 193-193 193z m260-467c-4 0-8 1-11 4l-113 113c-5 6-4 15 1 20 5 5 14 6 20 1l113-113c4-4 5-11 3-16-2-6-8-9-13-9z"/>
<glyph glyph-name="ranking" unicode="&#53;" d="M139 10l-101 0c-7 0-14 3-19 8-5 5-8 12-8 19l0 76c0 15 12 27 27 27l101 0c15 0 27-12 27-27l0-76c0-15-12-27-27-27z m-99 29l97 0 0 72-97 0z m267-29l-102 0c-15 0-27 12-27 27l0 177c0 15 12 27 27 27l102 0c15 0 27-12 27-27l0-177c0-15-12-27-27-27z m-100 29l98 0 0 173-98 0z m267-29l-101 0c-15 0-27 12-27 27l0 127c0 15 12 27 27 27l101 0c15 0 27-12 27-27l0-127c0-15-12-27-27-27z m-99 29l97 0 0 123-97 0z m99 163l-101 0c-15 0-27 13-27 28l0 25c0 43 35 77 78 77 42 0 77-34 77-77l0-25c0-15-12-28-27-28z m-99 29l97 0 0 24c0 27-22 48-48 48-27 0-49-21-49-48z m-68 22l-102 0c-15 0-27 12-27 27l0 25c0 43 35 78 78 78l0 0c43 0 78-35 78-78l0-25c0-15-12-27-27-27z m-100 29l98 0 0 23c0 27-22 49-49 49l0 0c-27 0-49-22-49-49z m-119 0c-31 0-57 26-57 58 0 32 26 58 57 58 32 0 58-26 58-58 0-32-26-58-58-58z m0 87c-15 0-28-13-28-29 0-16 13-29 28-29 16 0 29 13 29 29 0 16-13 29-29 29z m168 18c-32 0-58 26-58 57 0 32 26 58 58 58 32 0 58-26 58-58 0-31-26-57-58-57z m0 86c-16 0-29-13-29-29 0-15 13-28 29-28 16 0 29 13 29 28 0 16-13 29-29 29z m168-140c-32 0-58 26-58 58 0 32 26 58 58 58 32 0 57-26 57-58 0-32-25-58-57-58z m0 87c-16 0-29-13-29-29 0-16 13-29 29-29 16 0 28 13 28 29 0 16-13 29-28 29z m-285-268l-101 0c-15 0-27 12-27 27l0 25c0 43 35 78 77 78 43 0 78-35 78-78l0-25c0-15-12-27-27-27z m-99 29l97 0 0 23c0 27-22 49-49 49-26 0-48-22-48-49z"/>
<glyph glyph-name="arrow" unicode="&#54;" d="M413 451l-194-195 194-195-60-59-254 254 254 254z"/>
<glyph glyph-name="menu1" unicode="&#55;" d="M481 75l-334 0c-14 0-25 11-25 25 0 13 11 25 25 25l334 0c13 0 24-12 24-25 0-14-11-25-24-25z m0 156l-334 0c-14 0-25 11-25 25 0 14 11 25 25 25l334 0c13 0 24-11 24-25 0-14-11-25-24-25z m0 156l-334 0c-14 0-25 11-25 25 0 14 11 25 25 25l334 0c13 0 24-11 24-25 0-14-11-25-24-25z m-408 23c0-18-15-33-33-33-18 0-33 15-33 33 0 19 15 34 33 34 18 0 33-15 33-34z m0-154c0-18-15-33-33-33-18 0-33 15-33 33 0 18 15 33 33 33 18 0 33-15 33-33z m0-154c0-19-15-34-33-34-18 0-33 15-33 34 0 18 15 33 33 33 18 0 33-15 33-33z"/>
<glyph glyph-name="menu2" unicode="&#56;" d="M109 75c0 25-22 45-50 45-27 0-49-20-49-45 0-25 22-46 49-46 28 0 50 21 50 46z m196 0c0 25-22 45-49 45-27 0-49-20-49-45 0-25 22-46 49-46 27 0 49 21 49 46z m197 0c0 25-22 45-49 45-28 0-50-20-50-45 0-25 22-46 50-46 27 0 49 21 49 46z m-393 181c0 25-22 45-50 45-27 0-49-20-49-45 0-25 22-45 49-45 28 0 50 20 50 45z m196 0c0 25-22 45-49 45-27 0-49-20-49-45 0-25 22-45 49-45 27 0 49 20 49 45z m197 0c0 25-22 45-49 45-28 0-50-20-50-45 0-25 22-45 50-45 27 0 49 20 49 45z m-393 181c0 25-22 46-50 46-27 0-49-21-49-46 0-25 22-45 49-45 28 0 50 20 50 45z m196 0c0 25-22 46-49 46-27 0-49-21-49-46 0-25 22-45 49-45 27 0 49 20 49 45z m197 0c0 25-22 46-49 46-28 0-50-21-50-46 0-25 22-45 50-45 27 0 49 20 49 45z"/>
<glyph glyph-name="circle" unicode="&#57;" d="M508 256c0-139-113-252-252-252-139 0-252 113-252 252 0 139 113 252 252 252 139 0 252-113 252-252z m-289-87c-2 0-4 1-6 2l-79 79c-2 2-3 5-2 8 0 4 3 6 6 7 3 1 7 0 9-3l72-72 167 167c4 3 9 2 12-1 3-3 3-8 0-12l-173-173c-1-1-3-2-6-2z"/>
<glyph glyph-name="factor" unicode="&#33;" d="M435 4l-358 0c-8 0-14 6-14 14l0 352c0 8 6 14 14 14l112 3-1 107c0 4 2 7 4 10 3 3 7 4 11 4l232 0c8 0 14-6 14-14l0-476c0-8-6-14-14-14z m-343 29l328 0 0 446-203 0 2-106c0-8-7-15-14-15l-113-2z m-15 322c-6 0-11 4-13 9-3 6-1 12 3 16l126 124c5 6 14 6 20 0 6-6 6-15 0-20l-126-124c-2-3-6-5-10-5z m152-81l-104 0c-5 0-10 3-13 7-2 5-2 11 0 15 3 5 8 7 13 7l104 0c5 0 10-2 13-7 3-4 3-10 0-15-3-4-8-7-13-7z m152-83l-256 0c-5 0-10 3-13 7-2 5-2 10 0 15 3 4 8 7 13 7l256 0c8 0 14-7 14-14 0-8-6-15-14-15z m0-83l-256 0c-8 0-14 6-14 14 0 8 6 15 14 15l256 0c8 0 14-7 14-15 0-8-6-14-14-14z"/>
<glyph glyph-name="trash" unicode="&#34;" d="M473 480l-120 0-9 19c-5 8-13 13-22 13l-114 0c-9 0-18-5-22-13l-9-19-120 0c-4 0-8-2-11-5-3-3-5-7-5-11l0-32c0-9 7-16 16-16l416 0c9 0 16 7 16 16l0 32c0 4-2 8-5 11-3 3-7 5-11 5z m-379-435c2-25 23-45 48-45l246 0c25 0 46 20 48 45l21 339-384 0z"/>
<glyph glyph-name="basket" unicode="&#35;" d="M458 144l-248 0c-21 0-41 8-56 21-15 12-26 28-31 47 0 0 0 0 0 0 0 2 0 3-1 4l-49 251-44 0c-8 0-14 7-14 15 0 8 6 14 14 14l56 0c7 0 13-5 14-11l10-51 374 0c4 0 9-2 11-6 3-3 4-7 3-12l-33-163c-1-6-6-10-12-11l-294-38c10-18 30-31 52-31l248 0c8 0 14-6 14-14 0-8-6-15-14-15z m-343 261l34-173 289 37 27 136z m335-149z m-236-240c-22 0-42 13-51 33-8 21-3 45 12 60 16 16 40 21 60 12 21-8 34-28 34-51 0-14-6-28-16-38-10-11-24-16-39-16z m0 80c-12 0-22-9-24-21-2-11 4-23 15-28 11-4 24 0 31 10 6 10 5 23-4 32-4 4-11 7-18 7z m175-80c-23 0-43 13-51 34-9 20-4 44 12 59 16 16 39 21 60 12 20-8 33-28 33-51 1-14-5-28-15-38-11-11-25-16-39-16z m0 80c-12 0-23-9-25-21-2-11 4-23 16-28 11-4 23 0 30 10 7 10 5 23-3 32-5 4-11 7-18 7z"/>
<glyph glyph-name="car-1" unicode="&#36;" d="M471 148l-59 0 7 19c7 21-4 45-24 52-10 3-20 3-29-1-9-5-17-14-20-24-3-9-3-18 0-27l6-19-100 0 7 19c7 21-4 45-24 52-9 3-20 3-29-1-9-5-17-14-20-24-3-9-3-18 0-27l7-19-50 0c-18 0-32 14-32 33l0 185c0 18 14 32 32 32l275 0c11 0 21-5 27-15l54-66 1-1c3-5 4-11 4-17l0 0-1-119c0-18-14-32-32-32z m-21 29l21 0c2 0 3 2 3 4l0 0 1 118c0 1 0 1 0 2l-54 66-1 1c0 1-1 1-2 1l-275 0c-2 0-3-1-3-3l0-185c0-3 1-4 3-4l12 0c0 9 1 18 4 26 5 18 18 33 35 41 16 7 34 8 51 2 29-10 46-39 45-69l25 0c-1 9 1 18 3 26 6 18 19 33 36 41 16 7 34 8 51 2 28-10 46-39 45-69z m-68-63c-37 0-67 30-67 67 0 37 30 68 67 68 38 0 68-31 68-68 0-37-30-67-68-67z m0 106c-21 0-38-18-38-39 0-21 17-38 38-38 21 0 39 17 39 38 0 21-18 39-39 39z m-160-106c-37 0-67 30-67 67 0 37 30 68 67 68 38 0 68-31 68-68 0-37-30-67-68-67z m0 106c-21 0-38-18-38-39 0-21 17-38 38-38 22 0 39 17 39 38 0 21-17 39-39 39z m282 48l-161 0 0 124 76 0c11 0 20-4 26-12l54-68c5-8 5-14 5-23 0-2 0-4 0-7z m-132 29l101 0-51 65c-1 1-2 1-3 1l-47 0z m-199 30l-122 0c-8 0-14 6-14 14 0 8 6 15 14 15l122 0c8 0 15-7 15-15 0-8-7-14-15-14z m-28-46l-123 0c-8 0-14 7-14 15 0 8 6 14 14 14l123 0c8 0 14-6 14-14 0-8-6-15-14-15z m23-45l-108 0c-5 0-10 3-13 7-3 5-3 10 0 15 3 4 8 7 13 7l108 0c8 0 15-7 15-14 0-8-7-15-15-15z"/>
<glyph glyph-name="governement" unicode="&#37;" d="M393 38c-8 0-14 7-14 15l0 57-239 0 0-57c0-8-6-15-14-15-8 0-15 7-15 15l0 71c0 8 7 15 15 15l282 0 0-86c0-8-7-15-15-15z m-187 73c-4 0-7 2-10 5-3 2-4 6-4 10l0 163c0 8 6 14 14 14 8 0 15-6 15-14l0-163c0-4-2-8-4-10-3-3-7-5-11-5z m-63 0c-4 0-8 2-11 5-2 2-4 6-4 10l0 163c0 5 3 10 7 13 5 2 11 2 15 0 5-3 7-8 7-13l0-163c0-4-1-8-4-10-3-3-6-5-10-5z m224 1c-8 0-14 6-14 14l0 163c0 5 2 10 7 13 4 2 10 2 15 0 4-3 7-8 7-13l0-163c0-8-7-14-15-14z m-63 0c-8 0-15 6-15 14l0 163c0 5 3 10 7 13 5 2 11 2 15 0 5-3 7-8 7-13l0-163c0-8-6-14-14-14z m158-74c-4 0-8 2-10 4-3 3-5 7-5 11l0 221-382 0 0-221c0-8-7-15-15-15-8 0-14 7-14 15l0 250 440 0 0-250c0-4-1-8-4-11-3-2-6-4-10-4z m-69 236c-8 0-14 7-14 15l0 27-121 65-118-62 0-30c0-8-6-15-14-15-8 0-15 7-15 15l0 47 147 78 150-80 0-45c0-8-7-15-15-15z m99-236l-472 0c-8 0-15 7-15 15 0 8 7 14 15 14l472 0c8 0 15-6 15-14 0-8-7-15-15-15z m-236 345c-4 0-8 1-10 4-3 3-5 6-5 10l0 62c0 8 7 15 15 15 8 0 15-7 15-15l0-62c0-4-2-7-5-10-2-3-6-4-10-4z m87 27l-102 0 0 48c0 9 7 16 16 16l86 0z m-72 29l43 0 0 6-43 0z"/>
<glyph glyph-name="store" unicode="&#38;" d="M423 54l-334 0c-14 1-26 12-26 27l0 162 29 0 0-159 328 0 0 159 29 0 0-162c0-15-12-26-26-27z m-108 0l-115 0c-8 1-15 7-15 15l0 130c0 15 12 27 27 27l91 0c15 0 27-12 27-27l0-130c0-8-7-15-15-15z m-101 30l87 0 0 113-87 0z m-137 69l123 0 0-29-123 0z m238 0l120 0 0-29-120 0z m-264 73c-7 0-15 0-22 1-7 1-14 4-18 9-8 9-10 21-5 32l85 173c5 10 15 16 26 17l279 0c10-1 20-7 25-17l85-173c5-11 3-23-5-32-4-5-11-8-18-9-12-1-25-2-37-1l1 15-2-15c-10 1-21 3-31 5-21 6-40 15-56 27-27-22-65-32-102-32-37 0-75 10-102 32-16-12-35-21-57-27-10-3-31-5-31-5-5 0-10 0-15 0z m38 33l4-13-3 13c21 6 40 15 54 28 5 6 14 6 20 0l0 0c22-20 55-32 92-32l0 0c37 0 70 12 92 32l0 0c6 6 15 6 20 0 14-12 32-22 53-27l0 0c9-2 18-4 27-5 10-1 21 0 31 1l-84 172-278 0-84-172c10-1 20-2 30-1 7 1 22 3 26 4z m50 21l34 166 28-6-33-166z m172 160l28 6 33-166-28-6z"/>
<glyph glyph-name="share" unicode="&#39;" d="M82 250l300 172 14-26-300-171z m0-26l14 26 300-153-13-25z m388 205c0-41-33-74-74-74-41 0-74 33-74 74 0 41 33 74 74 74 41 0 74-33 74-74z m0-346c0-41-33-74-74-74-41 0-74 33-74 74 0 41 33 74 74 74 41 0 74-33 74-74z m-280 165c0-41-33-74-74-74-41 0-74 33-74 74 0 41 33 74 74 74 41 0 74-33 74-74z"/>
<glyph glyph-name="user" unicode="&#40;" d="M265 264c-67 0-120 53-120 120 0 66 53 120 120 120 66 0 120-54 120-120 0-67-54-120-120-120z m0 211c-51 0-91-41-91-91 0-51 40-91 91-91 50 0 91 40 91 91-1 50-41 91-91 91z m162-467l-342 0c-21 0-38 18-38 39l0 9c0 111 90 201 200 201l18 0c110 0 200-90 200-201l0-9c0-21-17-39-38-39z m-180 220c-94 0-171-77-171-172l0-9c0-5 4-10 9-10l342 0c5 0 9 5 9 10l0 9c0 95-77 172-171 172z"/>
<glyph glyph-name="education" unicode="&#41;" d="M256 186c-2 0-4 1-6 1l-227 101c-6 3-9 8-9 14 0 6 3 11 9 13l227 101c4 2 8 2 12 0l227-101c6-2 9-7 9-13 0-6-3-11-9-14l-227-101c-2 0-4-1-6-1z m-192 116l192-85 192 85-192 85z m192-207c-51 0-86 10-106 18-13 6-42 21-42 41l0 108 29 0 0-106c5-8 43-32 119-32 76 0 114 24 120 32l0 106 29 0 0-108c0-20-30-35-43-41-20-8-55-18-106-18z m120 62z m-240 0z m348-55c-8 0-15 6-15 14l0 186c0 8 7 14 15 14 7 0 14-6 14-14l0-186c0-8-6-14-14-14z"/>
<glyph glyph-name="user-verify" unicode="&#42;" d="M250 293c-57 0-103 46-103 103 0 56 46 102 103 102 57 0 103-46 103-102-1-57-46-103-103-103z m0 176c-41 0-74-33-74-73 0-41 33-74 74-74 41 0 74 33 74 74-1 40-33 73-74 73z m16-386l-166 0c-19 1-34 16-34 35l0 8c0 93 76 170 169 170l15 0c51 0 99-23 131-62 5-7 4-15-2-20-6-5-15-5-20 1-27 33-67 52-109 51l-15 0c-77 0-140-63-140-140l0-8c0-3 2-5 5-5l166 0c8-1 14-7 14-15 0-8-6-14-14-15z m97-69c-2 0-4 0-6 1-16 8-31 18-43 30-23 21-35 46-35 72l0 52c0 7 4 12 10 14l69 23c3 1 7 1 10 0l69-23c5-2 9-7 9-14l0-52c0-26-11-51-34-72-12-12-27-22-43-30-2-1-4-1-6-1z m-55 145l0-42c0-38 38-63 55-72 17 9 54 34 54 72l0 42-54 18z m45-80l-1 0c-4 0-8 2-10 6l-23 28c-5 6-4 16 2 21 6 5 15 4 20-3l13-16 32 32c5 5 14 5 20 0 5-6 5-15 0-21l-43-43c-3-2-6-4-10-4z"/>
<glyph glyph-name="address" unicode="&#43;" d="M197 45c-5 0-10 3-12 7-18 29-41 54-63 78l10 10-10-10c-24 26-46 50-64 79-21 34-31 68-31 105 0 76 46 145 117 175 71 29 152 13 206-41 36-36 56-84 56-134 0-8-6-15-15-15-8 0-14 7-14 15-1 88-72 159-160 159-88 0-160-71-161-159 0-31 9-61 27-90 16-26 37-49 60-74l0 0c23-26 47-52 66-82 3-5 3-10 1-15-3-5-8-8-13-8z m20 148c-67 0-121 54-121 121-1 67 54 121 121 121 67 0 121-54 121-121 0-8-7-15-15-15-8 0-14 7-14 15 0 51-41 92-92 92-51 0-92-41-92-92 0-51 41-92 92-92 8-1 14-7 14-15 0-8-6-14-14-14z m253-60c-3 0-7 1-10 4l-30 28 0 0c0 0 0 0 0 0l-1 1-57 51c-13 12-32 12-45 0l-88-80c-6-5-15-5-21 1-5 6-5 15 1 20l88 81c24 22 61 22 85 0l56-51c1-1 2-2 2-3l30-27c4-4 6-10 4-16-2-5-8-9-14-9z m-73-124l-96 0c-34 0-62 28-62 62l0 99c0 8 6 14 14 14 8 0 14-6 15-14l0-99c0-18 15-33 33-33l96 0c19 0 34 15 34 33l0 1 0 98c1 8 7 14 15 14 8 0 14-6 14-14l0-99c-1-34-28-62-63-62z"/>
<glyph glyph-name="order" unicode="&#44;" d="M387 13l-262 0c-33 0-60 27-60 60l0 366c0 33 27 60 60 60l262 0c33 0 60-27 60-60l0-366c0-33-27-60-60-60z m-262 457c-17 0-31-14-31-31l0-366c0-17 14-31 31-31l262 0c17 0 31 14 31 31l0 366c0 17-14 31-31 31z m265-93l-212 0c-8 0-14 6-14 14 0 8 6 14 14 15l212 0c8-1 14-7 14-15 0-8-6-14-14-14z m0-82l-212 0c-8 1-14 7-14 15 0 8 6 14 14 14l212 0c8 0 14-6 14-14 0-8-6-14-14-15z m0-81l-212 0c-8 0-15 7-15 15 0 8 7 14 15 14l212 0c8 0 14-6 14-14 0-8-6-15-14-15z m0-81l-212 0c-8 0-15 7-15 15 0 8 7 14 15 14l212 0c8 0 14-6 14-14 0-8-6-15-14-15z m-240 256c0-8-6-15-15-15-8 0-15 7-15 15 0 8 7 15 15 15 9 0 15-7 15-15z m0-77c0-8-6-14-15-14-8 0-15 6-15 14 0 9 7 15 15 15 9 0 15-6 15-15z m0-84c0-8-6-15-15-15-8 0-15 7-15 15 0 8 7 15 15 15 9 0 15-7 15-15z m0-80c0-8-6-15-15-15-8 0-15 7-15 15 0 8 7 15 15 15 9 0 15-7 15-15z"/>
<glyph glyph-name="card" unicode="&#45;" d="M449 77l-386 0c-30 0-54 24-54 54l0 250c0 30 24 54 54 54l386 0c30 0 54-24 54-54l0-250c0-30-24-54-54-54z m-386 329c-14-1-25-11-25-25l0-250c0-14 11-24 25-25l386 0c14 1 25 11 25 25l0 250c0 14-11 24-25 25z m-39-69l464 0 0-29-464 0z m243-96l-195 0c-8 0-14 7-14 15 0 8 6 15 14 15l195 0c8 0 14-7 14-15 0-8-6-15-14-15z"/>
<glyph glyph-name="statics-1" unicode="&#46;" d="M22 24c-8 0-15 7-15 15l0 434c0 8 7 14 15 14 7 0 14-6 14-14l0-434c0-8-6-15-14-15z m468 1l-468 0c-6 0-11 2-13 7-3 4-3 10 0 15 2 4 7 7 13 7l468 0c6 0 11-3 13-7 3-5 3-11 0-15-2-5-7-7-13-7z m-394 134c-6 0-11 3-14 9-2 5-1 11 3 15l109 113c3 3 6 4 10 4l0 0c4 0 8-1 11-4l69-69 132 133c6 6 15 6 21 0 5-5 5-15 0-20l-143-144c-2-3-6-4-10-4-4 0-7 1-10 4l-69 69-99-102c-3-3-6-4-10-4z m353 98c-3 0-7 2-10 4-3 3-4 7-4 11l0 86-84 0c-8 0-14 7-14 14 0 8 6 15 14 15l92 0c12 0 21-9 21-21l0-94c0-8-7-15-15-15z m-6 101z"/>
<glyph glyph-name="consumable" unicode="&#47;" d="M376 8c-7 0-14 3-19 8l-61 61c-8 8-11 20-6 31 4 10 14 17 25 17l3 0 0 143c0 16 13 28 28 28l64 0c16 0 28-12 28-28l0-143c11 0 21-7 25-18 5-10 2-22-6-30l-61-61c-5-5-12-8-20-8z m1 29z m-59 59l58-58 59 58-26 0 0 171-61 0 0-171z m-89-63c-101 0-182 66-182 147 0 25 20 62 61 114 31 39 63 73 69 79 4 5 10 7 17 7l71 0c6 0 12-2 16-7 6-5 24-25 46-51 5-6 5-15-1-20-6-5-16-5-21 1-19 23-36 41-43 48l-66 0c-9-9-38-40-65-75-50-62-55-88-55-96 0-31 15-60 43-82 30-24 69-36 110-36 17 0 33 2 49 6 7 2 15-3 17-11 2-7-2-15-10-17-18-5-37-7-56-7z m31 320z m-62 0z m66-2l-70 0c-6 0-11 2-15 5-14 12-28 25-41 38-26 26-40 48-41 65-1 10 2 20 8 28 7 7 16 11 27 11 16 0 38-10 56-21 15 18 28 27 41 27 13 0 27-9 41-27 18 11 40 21 57 21 10 0 19-4 26-11 6-8 10-18 9-28-2-17-15-39-41-65-13-13-27-26-42-38-4-3-9-5-15-5z m-3 28l0 0z m-65 1l66 0c34 27 69 64 71 82 0 4-2 5-2 6-1 1-2 1-4 1-10 0-30-9-52-24l-12-7-8 11c-17 25-26 26-26 26-2 0-11-5-26-26l-8-11-12 7c-22 15-42 24-51 24-2 0-4 0-5-1 0-1-2-2-1-6 1-18 36-54 70-82z"/>
<glyph glyph-name="basket-1" unicode="&#58;" d="M400 8l-288 0c-18 0-35 7-47 20-12 13-18 31-16 49l25 294c2 13 12 22 25 22l59 0 0 14c0 54 44 97 98 97 54 0 98-43 98-97l0-14 59 0c13 0 23-10 25-22l25-294c2-18-4-36-16-49-12-13-29-20-47-20z m-288 29l288 0c10 0 19 4 25 11 7 7 10 16 9 26l-25 290-84 0 0 43c0 24-13 47-35 60-21 12-47 12-69 0-21-13-34-36-34-60l0-43-84 0-25-290c-1-10 2-19 9-26 6-7 15-11 25-11z m241 261l-29 0 0 66-136 0 0-66-29 0 0 95 194 0z m-176 4c-18 0-33-14-33-32 0-19 14-34 32-34 18 0 33 14 34 32 0 18-14 33-33 34z m-1-49c-9 0-16 7-16 16 1 9 8 16 17 16 9 0 16-7 16-16 0-9-8-17-17-16z m163 49c-18 0-33-15-33-33 0-19 15-34 33-34 18 0 33 15 33 34 0 18-15 33-33 33z m0-50c-9 0-17 8-17 17 0 9 8 16 17 16 9 0 16-7 16-16 0-9-7-17-16-17z"/>
<glyph glyph-name="profile" unicode="&#59;" d="M227 233l-97 0c-8 0-14 6-14 14 0 8 6 15 14 15l97 0c8 0 15-7 15-15 0-8-7-14-15-14z m-48 61l-49 0c-5 0-10 2-13 7-3 5-3 10 0 15 3 4 8 7 13 7l49 0c5 0 10-3 13-7 2-5 2-10 0-15-3-5-8-7-13-7z m160-123l-209 0c-8 0-14 7-14 15 0 8 6 14 14 14l209 0c8 0 14-6 14-14 0-8-6-15-14-15z m0-62l-209 0c-8 0-14 7-14 15 0 8 6 14 14 14l209 0c8 0 14-6 14-14 0-8-6-15-14-15z m-32 243c-29 0-52 23-52 52 0 28 23 51 52 51 28 0 51-23 51-51 0-29-23-52-51-52z m0 74c-13 0-23-10-23-22 0-13 10-23 23-23 12 0 22 10 22 23 0 12-10 22-22 22z m56-151l-119 0c-13 0-23 10-23 23l0 3c0 44 36 79 80 80l6 0c44-1 79-36 79-80l0-3c0-13-10-23-23-23z m-113 29l107 0c-1 27-23 47-50 47l-6 0c-27 0-49-20-51-47z m128-290l-244 0c-38 0-70 32-70 70l0 344c0 38 32 70 70 70l244 0c38 0 70-32 70-70l0-344c0-38-32-70-70-70z m-244 455c-22 0-41-19-41-41l0-344c0-22 19-41 41-41l244 0c22 0 41 19 41 41l0 344c0 22-19 41-41 41z"/>
<glyph glyph-name="factor-2" unicode="&#60;" d="M293 388l-214 0c-8 1-14 7-14 15 0 8 6 14 14 14l214 0c8 0 14-6 14-14 0-8-6-14-14-15z m0-64l-214 0c-8 0-15 7-15 15 0 8 7 14 15 14l214 0c8 0 15-6 15-14 0-8-7-15-15-15z m0-63l-214 0c-8 0-14 6-14 14 0 8 6 14 14 15l214 0c8-1 14-7 14-15 0-8-6-14-14-14z m0-64l-214 0c-8 0-14 6-14 14 0 8 6 14 14 15l214 0c8-1 14-7 14-15 0-8-6-14-14-14z m142 40l-59 0c-25 0-45 20-45 44l0 150c0 8 7 14 15 14 8 0 14-6 14-14l0-150c0-8 7-15 16-15l59 0c9 0 16 7 16 15l0 135-45 0c-9 0-15 7-15 15 0 8 6 14 15 14l74 0 0-164c0-24-20-44-45-44z m0 0l-59 0c-8 0-15 6-15 14 0 8 7 15 15 15l18 0c-2 5-3 10-3 15l0 180c0 8-7 15-15 15l-105 0c-8 0-14 7-14 14 0 8 6 15 14 15l105 0c24 0 44-20 44-44l0-180c0-8 7-15 15-15z m-403-230l0 454c0 24 20 44 45 44l299 0 0-29c-9 0-16-7-16-15l0-454-44 44-28-28-47 31-45-29-45 29-46-31-28 28z m119 82l45-30 45 30 43-28 32 31 15-15 0 384c0 5 1 10 3 15l-257 0c-9 0-16-7-16-15l0-384 16 15 31-31z"/>
<glyph glyph-name="static-2" unicode="&#61;" d="M101 147c-25 0-45 21-45 46 0 25 20 45 45 45 26 0 46-20 46-45 0-25-20-46-46-46z m0 62c-9 0-16-7-16-16 0-9 7-17 16-17 10 0 17 8 17 17 0 9-7 16-17 16z m115 52c-26 0-46 21-46 46 0 25 20 45 46 45 25 0 45-20 45-45 0-25-20-46-45-46z m0 62c-9 0-17-7-17-16 0-9 8-17 17-17 9 0 16 8 16 17 0 9-7 16-16 16z m71-130c-25 0-46 20-46 45 0 25 21 46 46 46 25 0 46-21 46-46 0-25-21-45-46-45z m0 62c-9 0-17-8-17-17 0-9 8-16 17-16 9 0 17 7 17 16 0 9-8 17-17 17z m115 54c-25 0-45 20-45 45 0 26 20 46 45 46 26 0 46-21 46-46 0-25-20-45-46-45z m0 62c-9 0-16-8-16-17 0-9 7-16 16-16 10 0 17 7 17 16 0 9-7 17-17 17z m-289-146l70 70 21-21-70-70z m186 46l71 71 20-20-71-72z m-71 4l22 20 24-27-21-20z m277-163l-483 0c-9 0-15 7-15 15 0 8 6 14 15 14l454 0 0 235c0 8 6 14 14 14 9 0 15-6 15-14z"/>
<glyph glyph-name="exit" unicode="&#62;" d="M273 68l-187 0c-40 0-72 32-72 72l0 232c0 40 32 72 72 72l188 0c40 0 72-32 72-72l0-38c0-5-3-10-7-13-5-2-10-2-15 0-4 3-7 8-7 13l0 38c0 24-19 43-43 43l-188 0c-24 0-43-19-43-43l0-232c0-24 19-43 43-43l187 0c24 0 44 19 44 43l0 38c0 5 2 10 7 13 5 2 10 2 15 0 4-3 7-8 7-13l0-38c0-40-33-72-73-72z m210 173l-352 0c-8 0-15 7-15 15 0 8 7 15 15 15l352 0c8 0 15-7 15-15 0-8-7-15-15-15z m-95-99c-6 0-11 3-14 8-2 6-1 12 3 16l88 90-88 90c-5 5-5 15 1 20 5 6 14 6 20 0l94-96c8-8 8-20 0-28l-94-96c-3-3-6-4-10-4z m84 108z"/>
<glyph glyph-name="selected" unicode="&#63;" d="M191 240l-153 0c-16 0-29 13-29 29l0 153c0 16 13 30 29 30l153 0c16 0 30-14 30-30l0-153c0-16-14-29-30-29z m-153 183c0 0 0-1 0-1l0-153c0 0 0 0 0 0l153 0c0 0 1 0 1 0l0 153c0 0-1 1-1 1z m382-183l-153 0c-16 0-30 13-30 29l0 153c0 16 14 30 30 30l17 0c8 0 14-7 14-15 0-8-6-14-14-14l-17 0c0 0-1-1-1-1l0-153c0 0 1 0 1 0l153 0c0 0 0 0 0 0l0 12c0 8 7 14 15 14 8 0 14-6 14-14l0-12c0-16-13-29-29-29z m-229-224l-153 0c-16 0-29 13-29 30l0 152c0 17 13 30 29 30l153 0c16 0 30-13 30-30l0-152c0-17-14-30-30-30z m-153 183c0 0 0 0 0-1l0-152c0-1 0-1 0-1l153 0c0 0 1 0 1 1l0 152c0 1-1 1-1 1z m382-183l-153 0c-16 0-30 13-30 30l0 152c0 17 14 30 30 30l153 0c16 0 29-13 29-30l0-152c0-17-13-30-29-30z m-153 183c0 0-1 0-1-1l0-152c0-1 1-1 1-1l153 0c0 0 0 0 0 1l0 152c0 1 0 1 0 1z m181 91c-5 0-9 2-13 4l-38 23-39-23c-8-5-18-5-26 1-8 6-12 16-10 25l10 44-33 29c-8 7-11 17-8 26 3 9 12 16 21 17l45 4 17 41c4 9 13 15 23 15 10 0 18-6 22-15l18-41 44-4c10-1 18-8 21-17 3-9 0-19-7-26l-34-29 10-44c2-7 0-15-4-20-5-6-12-10-19-10z m2 29z m-53 32l44-26-12 49 39 34-51 5-20 47-20-47-51-5 38-34-11-49z m78 59z m-157 5z"/>
<glyph glyph-name="heart-o" unicode="&#64;" d="M286 13l-1 0c-12 0-23 5-31 14l-178 184c-2 2-3 3-5 5-53 62-46 155 15 208l1 0c57 46 141 40 191-14l8-8 7 8c49 53 130 60 188 17l0 0 5-3c1-2 3-4 5-6 59-56 61-149 5-207l-179-184c0-1-1-1-1-2-8-7-19-12-30-12z m-181 388c-49-42-54-116-12-166 1-1 3-3 4-4l178-184c3-3 7-5 10-5 4 0 8 2 11 4l0 1 179 184c45 47 43 122-4 166-1 2-3 3-4 4l0 0c-46 37-112 32-152-11l-1 0-28-30-29 30c-40 43-106 48-152 11z"/>
<glyph glyph-name="post" unicode="&#91;" d="M155 292l-100 0c-8 0-15 7-15 15 0 8 7 14 15 14l100 0c8 0 14-6 14-14 0-8-6-15-14-15z m-34-41l-99 0c-8 0-14 6-14 14 0 8 6 15 14 15l99 0c8 0 15-7 15-15 0-8-7-14-15-14z m25-42l-99 0c-8 0-14 7-14 15 0 8 6 14 14 14l99 0c8 0 14-6 14-14 0-8-6-15-14-15z m193-122l0 0c-1 0-2 0-2 0-2 0-4 1-6 2l-144 70c-7 4-11 10-11 18l0 0 2 165c0 2 0 4 1 6 0 1 0 1 1 2 0 0 0 1 1 1 2 4 4 6 8 8l48 21c0 1 1 1 2 1l43 19c0 1 1 1 1 1l51 23c5 2 11 2 16-1l144-70c2-2 4-3 6-5 3-3 5-7 5-12 0 0 0 0 0-1l0-161c-1-7-5-12-11-15l-147-71c-2-1-4-1-6-1 0 0-1 0-2 0z m16 173l-1-136 122 58 0 133-24-11 0-50c0-7-5-14-11-17l-35-16c-3-1-6-1-9-1-3 0-7 1-10 3-5 3-9 9-8 16l0 0 0 32z m-150-77l120-59 1 137-119 59z m203 101l0-30 15 7 0 30z m21-20l0-1z m-204 79l116-57 19 8-117 57z m53 24l116-57 10 4-116 57z m45 20l115-57 19 8-115 57z"/>
<glyph glyph-name="charity" unicode="&#93;" d="M253 373c-29 0-52 23-52 52 0 28 24 52 52 52 29-1 52-24 52-52 0-29-23-52-52-52z m0 75c-13-1-23-11-23-24 0-12 11-22 23-22 13 0 23 10 23 23 0 12-10 23-23 22z m62-197l-127 0c-4 0-8 1-11 4-2 3-4 6-4 10l0 28c0 43 34 79 77 79l1 0c21 0 40-8 55-22 15-15 23-35 23-56 0 0 0-1 0-1l0-28c0-8-6-14-14-14z m-113 29l98 0 0 13c0 0 0 1 0 1 0 13-5 26-15 35-9 10-21 15-34 14-28 0-49-23-49-50z m24-245l-90 0c-13 0-23 11-23 23l0 37-32 16c0 0-1 0-1 0-43 21-69 65-69 112l0 116c0 27 22 48 48 48l1 0c27-1 48-23 48-49l0-56c7-2 14-6 20-12l23-23c8-8 26-12 39-13 1 0 1-1 1-1 34-4 58-33 58-67l0-108c0-12-10-23-23-23z m-84 30l78 0 0 101c0 20-14 36-33 39l0 0c-11 1-40 5-56 22l-24 23c-3 3-7 5-11 5-5-3-7-8-8-14 0-5 2-11 6-15l43-43c6-6 6-15 0-21-5-5-14-5-20 0l-44 44c-10 10-15 23-14 37 1 15 8 27 20 36l0 59c0 0 0 0 0 0 0 5-2 10-6 14-5 5-14 7-21 4-7-2-12-9-12-17 0 0 0-1 0-1l0-115c0-36 20-69 52-85 0 0 0 0 1-1l41-20c5-2 8-7 8-13z m44 140c1 0 1 0 1 0l0 0z m190-170l-90 0c-13 0-23 11-23 23l0 108c0 34 24 63 58 67 0 0 0 0 1 1 13 1 31 5 39 13l23 23c6 6 13 10 20 12l0 56c0 26 21 48 48 49l1 0c26 0 48-21 48-48 0 0 0-1 0-1l0-115c0-47-26-91-69-112 0 0-1 0-1 0l-32-16 0-37c0-12-10-23-23-23z m-84 30l78 0 0 39c0 6 3 11 8 13l41 20c1 1 1 1 1 1 32 16 52 49 52 85l0 115c0 0 0 1 0 1 0 10-9 19-19 19l-1 0c-5 0-10-2-13-6-4-4-6-9-6-14 0 0 0 0 0 0l0-59c12-9 19-21 20-36 1-14-4-27-14-37l-44-44c-6-5-15-5-20 0-6 6-6 15 0 21l43 43c4 4 6 10 6 15-1 6-3 11-8 14-4 0-8-2-11-5l-23-23c-17-17-46-21-57-22l0 0c-19-3-33-19-33-39z m34 140l-1 0 0 0c0 0 0 0 1 0z"/>
<glyph glyph-name="speach-stand" unicode="&#94;" d="M407 311l-302 0c-4 0-8 1-10 4-3 3-5 6-5 10l0 40c0 4 2 8 5 11 2 2 6 4 10 4l302 0c4 0 8-2 10-4 3-3 5-7 5-11l0-40c0-4-2-7-5-10-2-3-6-4-10-4z m-288 29l274 0 0 11-274 0z m252-110l-231 0c-8 0-14 7-14 15l0 80 29 0 0-66 202 0 0 66 29 0 0-80c0-8-7-15-15-15z m-35 15l29 0 0-230-29 0z m-187 0l29 0 0-230-29 0z m241-245l-272 0c-8 0-15 7-15 15 0 8 7 14 15 14l272 0c8 0 15-6 15-14 0-8-7-15-15-15z m-86 47l-97 0c-4 0-8 1-11 4-2 3-4 6-4 10l0 137c0 4 2 7 4 10 3 3 7 4 11 4l97 0c8 0 15-6 15-14l0-137c0-8-7-14-15-14z m-83 29l69 0 0 107-69 0z m76 280l-29 0 0 32-19 20 21 20 27-28z m-60 48c-10 0-19 4-26 11l-30 30c-15 14-15 38 0 52l4 4c14 15 38 15 52 0l30-30c15-14 15-38 0-52l-4-4c-7-7-16-11-26-11z m-26 79c-2 0-4-1-6-2l-4-4c-3-4-3-9 0-12l30-30c3-3 8-3 12 0l4 4c3 4 3 9 0 12l-30 30c-2 1-4 2-6 2z"/>
<glyph glyph-name="car-2" unicode="&#95;" d="M443 251l-111 0c-8 0-14 3-19 9l0 1c-4 5-5 11-5 17l1 1 18 73c0 6 3 13 13 18l2 1 3 1c6 1 13-1 19-4l0-1 94-74 0-1c12-12 9-22 7-28l0 0c-4-8-13-13-22-13z m-104 29l89 0-74 59z m30-177c-25 0-47 16-56 39l-90 0c-9-23-32-39-57-39-25 0-47 16-56 39l-10 0c-38 0-68 30-68 68l0 0c0 10 3 19 7 27l66 134c12 23 35 38 61 38l185 0c17-1 34-7 48-18l77-65c17-14 27-36 24-59-1-23-7-46-17-67l0-1-19-35c-5-10-14-17-25-21-2 0-2 0-13 0-9-24-32-40-57-40z m0 92c-17 0-32-14-32-31 0-18 15-32 32-32 17 0 31 14 31 32 0 17-14 31-31 31z m-203 0c-17 0-31-14-31-31 0-18 14-32 31-32 18 0 32 14 32 32 0 17-14 31-32 31z m61-24l82 0c3 30 29 53 60 53 30 1 56-22 60-52l3 0c3 1 6 3 7 6l18 34c9 18 13 38 15 57l0 1c1 13-4 25-14 34l-1 0-77 64c-8 7-19 11-30 12l-184 0c-14 0-28-9-35-22l-66-134-13 6 13-7c-2-4-4-9-4-13 0-22 18-39 39-39l6 0c4 30 30 53 60 53 31 0 57-23 61-53z m-61 165l-140 0c-8 0-15 7-15 15 0 8 7 14 15 14l140 0c8 0 15-6 15-14 0-8-7-15-15-15z m-35-58l-97 0c-5 0-10 3-13 7-2 5-2 10 0 15 3 5 8 7 13 7l97 0c8 0 15-6 15-14 0-8-7-15-15-15z m-31-61l-66 0c-8 0-14 7-14 15 0 8 6 14 14 14l66 0c8 0 15-6 15-14 0-8-7-15-15-15z"/>
<glyph glyph-name="factor-3" unicode="&#96;" d="M420 7l-328 0c-15 0-28 12-28 28l0 383c0 16 13 28 28 28l96 0 0-29-95 0 0-381 326 0 0 381-95 0 0 29 96 0c15 0 28-12 28-28l0-383c0-16-13-28-28-28z m-258 290c0-8-6-14-14-14-8 0-15 6-15 14 0 8 7 15 15 15 8 0 14-7 14-15z m0-148c0-8-6-14-14-14-8 0-15 6-15 14 0 8 7 15 15 15 8 0 14-7 14-15z m0 74c0-8-6-14-14-14-8 0-15 6-15 14 0 8 7 15 15 15 8 0 14-7 14-15z m176 167l-164 0 0 63 0 1c2 13 13 22 26 21l1 0c7 18 29 30 55 30 26 0 48-12 55-30l3 0c12 1 22-8 24-20l0-1z m-135 29l106 0 0 27-24 0 0 15c0 7-12 15-29 15-17 0-29-8-29-15l0-15-24 0z m164-136l-181 0c-8 0-15 6-15 14 0 8 7 15 15 15l181 0c8 0 15-7 15-15 0-8-7-14-15-14z m-5-76l0 0-177 2c-8 0-14 6-14 14 0 8 6 15 14 15l1 0 176-2c8 0 14-6 14-14 0-8-6-14-14-15z m-1-72l-175 0c-8 0-15 6-15 14 0 8 7 15 15 15l175 0c8 0 15-7 15-15 0-8-7-14-15-14z"/>
<glyph glyph-name="post-2" unicode="&#123;" d="M255 82l0 0c-1 0-2 0-3 0-2 1-4 1-6 2l-148 73c-6 3-10 10-10 17l0 0 1 170c0 2 0 5 1 7 0 0 1 1 1 1 0 1 1 1 1 2 2 3 5 6 8 7l49 22c1 1 2 1 2 1l45 20c0 0 1 1 1 1l52 23c6 2 12 2 17 0l148-73c2-1 4-3 6-5 3-3 5-7 4-11 0-1 0-1 0-1l0-167c0-5-3-10-8-13-1 0-1-1-2-2l-151-72c-2-1-4-1-6-2-1 0-2 0-2 0z m16 179l-2-142 126 61 0 137-25-11 0-52c0-7-5-14-11-17l-36-16c-3-1-6-2-9-2-3 0-7 1-10 3-5 4-9 10-9 16l0 1 1 33z m-154-81l123-61 2 142-124 62z m208 105l0-32 16 8 0 32z m22-22l0 0z m-210 83l119-60 21 9-121 60z m54 24l120-59 11 5-120 59z m46 21l119-60 21 10-120 59z m16 11z"/>
<glyph glyph-name="card-2" unicode="&#124;" d="M391 141l-18 0c-23 0-42 18-42 41l0 18c0 23 19 42 42 42l18 0c22 0 41-19 41-42l0-18c0-23-19-41-41-41z m-18 71c-7 1-13-5-13-12l0-18c0-7 6-12 13-12l18 0c6 0 12 5 12 12l0 18c0 7-6 12-12 12z m75-129l-384 0c-31 0-57 25-57 56l0 234c0 31 26 56 57 56l384 0c31 0 57-25 57-56l0-234c0-31-26-56-57-56z m-384 317c-15 0-28-12-28-27l0-234c0-15 13-27 28-27l384 0c15 0 28 12 28 27l0 234c0 15-13 27-28 27z m441-138l-498 0 0 102 498 0z m-469 29l440 0 0 44-440 0z m174-91l-133 0c-8 0-14 7-14 15 0 8 6 14 14 14l133 0c8 0 14-6 14-14 0-8-6-15-14-15z m0-55l-133 0c-8 0-14 6-14 14 0 8 6 15 14 15l133 0c8 0 14-7 14-15 0-8-6-14-14-14z"/>
<glyph glyph-name="card-3" unicode="&#125;" d="M14 431l376 0 0-24-376 0z m142-93l-104 0c-6 0-12 5-12 12 0 6 6 11 12 11l104 0c6 0 11-5 11-11 0-7-5-12-11-12z m0-35l-104 0c-6 0-12 6-12 12 0 6 6 12 12 12l104 0c6 0 11-6 11-12 0-6-5-12-11-12z m166-71l-270 0c-26 0-46 21-46 47l0 169c0 26 20 47 46 47l308 0c26 0 47-21 47-47l0-169c0-11-4-20-10-28l-23 17c2 3 3 7 3 11l0 169c0 10-7 18-17 18l-308 0c-10 0-17-8-17-18l0-169c0-10 7-18 17-18l270 0z m-203-118c-19 0-36 12-43 30l-39 101 27 11 39-102c4-9 14-13 23-10l196 76 11-27-197-76c-5-2-11-3-17-3z m293 110l-10 27 11 4c9 4 13 14 10 23l-25 65-17 38 26 12 18-39 25-65c4-12 4-25-1-36-5-11-14-20-26-25z m-90-4l23 9 11-27-23-9z m170-140c-8 0-15 6-15 14l0 171c0 19-7 38-21 51l-76 77c-6 5-5 14 0 20 6 5 15 5 20 0l77-77c19-18 29-44 29-71l0-171c0-8-6-14-14-14z m-132 0c-5 0-10 2-13 6l-3 6c-21 33-23 75-5 110l-60 66-1 1c-14 17-11 43 6 57 15 13 42 12 57-1l0-1 116-115c4-4 5-10 4-15-1-5-5-9-10-10-5-2-11 0-15 4l-115 115c-4 4-14 4-19 0-4-4-5-11-1-16l63-69c7-7 8-18 3-26-15-26-15-59 2-85l3-5c3-5 3-10 0-15-2-5-7-7-12-7z m146-63l-161 0 0 77c0 8 7 15 15 15 8 0 14-7 14-15l0-48 103 0 0 48c0 8 7 15 15 15 8 0 14-7 14-15z m-425 158c-7 0-13 5-14 12-1 7 3 14 9 16l157 57c8 3 16-1 19-8 2-8-2-16-9-19l-157-57c-1-1-3-1-5-1z m411-95l-127 0c-8 0-14 6-14 14 0 8 6 15 14 15l127 0c8 0 14-7 14-15 0-8-6-14-14-14z"/>
<glyph glyph-name="add-address" unicode="&#126;" d="M209 35c-5 0-10 2-13 7-19 28-40 55-64 80-24 24-46 51-65 80l0 0c-21 32-32 70-32 108 0 107 87 194 194 194 106 0 193-87 193-194 0-8-6-15-14-15-8 0-15 7-15 15 0 91-74 165-164 165-91 0-165-74-165-165 0-33 10-65 27-92 18-27 39-53 62-76 25-26 47-54 68-84 3-5 3-10 0-15-2-5-7-8-12-8z m20 151c-69 0-124 55-124 124 0 68 55 123 124 123 68 0 123-55 123-123 0-8-6-14-14-14-8 0-15 6-15 14 0 52-42 94-94 94-53 1-95-42-95-94 0-53 42-95 95-95 7 0 14-7 14-14 0-8-7-15-14-15z m133-178c-8 0-15 7-15 15l0 202c0 8 7 14 15 14 8 0 14-6 14-14l0-202c0-4-1-8-4-10-3-3-7-5-10-5z m101 101l-202 0c-6 0-11 3-13 8-3 4-3 10 0 14 2 5 7 8 13 7l202 0c7 0 14-6 14-14 0-8-7-14-14-15z"/>
<glyph glyph-name="add-product" unicode="&#92;" d="M422 44c-8 0-15 7-15 15l0 143c0 8 7 15 15 15 8 0 14-7 14-15l0-143c0-8-6-15-14-15z m71 72l-143 0c-8 0-14 6-14 14 0 8 6 15 14 15l143 0c8 0 15-7 15-15 0-8-7-14-15-14z m-256-103l0 0c-3 0-6 1-9 2l-212 105c-7 3-12 11-12 19l0 0 2 243c0 8 5 16 13 19l213 96c6 3 13 3 18 0l212-105c3-1 5-3 7-5 3-3 5-8 5-12 0-1 0-1 0-2l0 0-1-140c0-8-7-14-15-14l0 0c-8 0-14 6-14 14l1 120-48-21-1-79c0-8-5-15-13-19l-51-23c-3-1-6-2-9-2-4 0-8 1-11 4-7 3-10 10-10 18l0 0 1 58-49-22-2-218 108 49c7 3 15 0 19-8 3-7 0-15-8-19l-125-56c-3-1-6-2-9-2z m-204 131l190-94 2 218-190 94z m299 158l-1-59 36 16 0 59z m-278 83l186-92 43 19-187 92z m76 35l188-92 30 14-186 92z m66 29l186-92 45 20-186 92z m41 22z"/>
<glyph glyph-name="printer" unicode="&#57344;" d="M68 124c-35 1-63 29-63 64l0 136c0 35 28 63 63 63l376 0c35 0 63-28 63-63l0-136c0-35-28-64-63-64l-50 0 0 29 50 0c19 0 34 16 34 35l0 136c0 19-15 34-34 34l-376 0c-19 0-34-15-34-34l0-136c0-19 15-35 34-35l49 0 0-29-49 0z m341 249l-29 0 0 69c0 19-16 34-35 35l-178 0c-19-1-35-16-35-35l0-69-29 0 0 69c0 35 29 63 64 64l178 0c35-1 64-29 64-64z m-64-367l-178 0c-35 1-64 29-64 64l0 157c0 14 11 25 24 25l258 0c13 0 24-11 24-24l0-158c0-35-29-63-64-64z m-178 29l178 0c19 1 35 16 35 35l0 153-248 0 0-153c0-19 16-34 35-35z m-40 188z m258 0z m-70-109l-138 0c-8 0-14 7-14 15 0 8 6 14 14 14l138 0c8 0 14-6 14-14 0-8-6-15-14-15z m-79 39l-59 0c-8 0-14 7-14 15 0 8 6 14 14 14l59 0c8 0 15-6 15-14 0-8-7-15-15-15z m79-78l-138 0c-8 0-14 7-14 15 0 8 6 14 14 14l138 0c8 0 14-6 14-14 0-8-6-15-14-15z"/>
</font>
</defs>
</svg>
